<svg xmlns="http://www.w3.org/2000/svg" width="64" height="64" viewBox="0 0 160 160" role="img" aria-label="IDSI Lab favicon">
  <rect width="160" height="160" rx="32" fill="#F7FAFC"/>
  <path d="M113 31C94 18 69 16 48 27C21 40 6 70 14 99C22 129 50 149 81 146C92 145 103 141 113 134" stroke="#0D1B3D" stroke-width="10" stroke-linecap="round" fill="none"/>
  <circle cx="123" cy="48" r="10" fill="#0F7F8C"/>
  <circle cx="132" cy="67" r="3.6" fill="#0F7F8C"/>
  <circle cx="137" cy="86" r="3.6" fill="#0F7F8C"/>
  <circle cx="134" cy="105" r="3.6" fill="#0F7F8C"/>
  <circle cx="126" cy="123" r="3.6" fill="#0F7F8C"/>
  <path d="M49 64L75 56L103 74L91 105L65 111L49 64Z" stroke="#0D1B3D" stroke-width="3.2" stroke-linejoin="round" fill="none"/>
  <path d="M75 56L65 111M49 64L91 105M75 56L91 105M103 74L65 111" stroke="#0D1B3D" stroke-opacity="0.82" stroke-width="2.6"/>
  <circle cx="49" cy="64" r="8" fill="#0D1B3D"/>
  <circle cx="75" cy="56" r="7.5" fill="#0D1B3D"/>
  <circle cx="103" cy="74" r="11" fill="#F5A623"/>
  <circle cx="91" cy="105" r="9" fill="#0D1B3D"/>
  <circle cx="65" cy="111" r="10" fill="#0F7F8C"/>
  <circle cx="119" cy="122" r="12" fill="#0F7F8C"/>
</svg>
