<svg xmlns="http://www.w3.org/2000/svg" width="420" height="128" viewBox="0 0 420 128" role="img" aria-label="IDSI Lab logo">
  <rect width="420" height="128" fill="white"/>
  <g transform="translate(8 12)">
    <path d="M79 11C64 2 45 1 29 9C9 19 -3 41 2 65C8 91 31 108 57 105C66 104 75 101 82 96" stroke="#0D1B3D" stroke-width="6.5" stroke-linecap="round" fill="none"/>
    <circle cx="89" cy="31" r="7" fill="#0F7F8C"/>
    <circle cx="95" cy="45" r="2.6" fill="#0F7F8C"/>
    <circle cx="99" cy="59" r="2.6" fill="#0F7F8C"/>
    <circle cx="97" cy="73" r="2.6" fill="#0F7F8C"/>
    <circle cx="91" cy="87" r="2.6" fill="#0F7F8C"/>
    <path d="M33 45L55 39L76 54L65 78L44 83L33 45Z" stroke="#0D1B3D" stroke-width="2.2" stroke-linejoin="round" fill="none"/>
    <path d="M55 39L44 83M33 45L65 78M55 39L65 78M76 54L44 83" stroke="#0D1B3D" stroke-opacity="0.82" stroke-width="1.8"/>
    <circle cx="33" cy="45" r="5.6" fill="#0D1B3D"/>
    <circle cx="55" cy="39" r="5.2" fill="#0D1B3D"/>
    <circle cx="76" cy="54" r="7.6" fill="#F5A623"/>
    <circle cx="65" cy="78" r="6.2" fill="#0D1B3D"/>
    <circle cx="44" cy="83" r="7.2" fill="#0F7F8C"/>
    <circle cx="86" cy="91" r="8.5" fill="#0F7F8C"/>
  </g>
  <line x1="136" y1="31" x2="136" y2="102" stroke="#CBD5E1" stroke-width="1.2"/>
  <text x="162" y="55" font-family="Inter, Arial, Helvetica, sans-serif" font-size="42" font-weight="800" letter-spacing="0.5" fill="#0D1B3D">IDSI Lab</text>
  <text x="162" y="86" font-family="Source Han Sans SC, Noto Sans SC, Microsoft YaHei, PingFang SC, sans-serif" font-size="20" font-weight="700" letter-spacing="4.5" fill="#0D1B3D">智能设计与系统创新实验室</text>
  <text x="162" y="107" font-family="Inter, Arial, Helvetica, sans-serif" font-size="12.5" font-weight="500" fill="#64748B">Lab for Intelligent Design and System Innovation</text>
</svg>
