<svg width="720" height="170" viewBox="0 0 720 170" fill="none" xmlns="http://www.w3.org/2000/svg" role="img" aria-labelledby="title desc">
  <title id="title">IDSI Lab logo</title>
  <desc id="desc">Final horizontal logo of IDSI Lab with open circular system network mark and bilingual wordmark.</desc>

  <g transform="translate(18 20)">
    <path d="M88 11C70.3 1.3 48.5-.3 28.7 8.8C4.5 19.9-8.6 46.7-2.3 72.2C4.4 99.5 29.6 117.4 57 114.9C67.5 113.9 77.3 110.3 85.4 104.9" transform="translate(18 11)" stroke="#0D1B3D" stroke-width="10" stroke-linecap="round"/>
    <path d="M112 44C121.3 62.1 119.2 85 107.1 101.3" transform="translate(18 11)" stroke="#0F7F8C" stroke-width="10" stroke-linecap="round" stroke-dasharray="1 13"/>

    <path d="M54 55L77 47L103 60L94 88L67 96L54 55Z" stroke="#0D1B3D" stroke-width="2.7" stroke-linejoin="round"/>
    <path d="M77 47L67 96M54 55L94 88M77 47L94 88M103 60L67 96" stroke="#0D1B3D" stroke-opacity="0.82" stroke-width="2"/>

    <circle cx="54" cy="55" r="7.5" fill="#0D1B3D"/>
    <circle cx="77" cy="47" r="6.5" fill="#0D1B3D"/>
    <circle cx="103" cy="60" r="10.5" fill="#0F7F8C"/>
    <circle cx="94" cy="88" r="8.5" fill="#0D1B3D"/>
    <circle cx="67" cy="96" r="9.5" fill="#0F7F8C"/>
    <circle cx="81" cy="66" r="10" fill="#F5A623"/>

    <circle cx="128" cy="66" r="3.2" fill="#0F7F8C"/>
    <circle cx="132" cy="80" r="3.2" fill="#0F7F8C"/>
    <circle cx="130" cy="94" r="3.2" fill="#0F7F8C"/>
    <circle cx="123" cy="107" r="3.2" fill="#0F7F8C"/>
  </g>

  <line x1="178" y1="35" x2="178" y2="132" stroke="#CBD5E1" stroke-width="1.2"/>

  <text x="218" y="70" font-family="Inter, Arial, Helvetica, sans-serif" font-size="54" font-weight="800" letter-spacing="1" fill="#0D1B3D">IDSI Lab</text>
  <text x="218" y="113" font-family="Source Han Sans SC, Noto Sans SC, Microsoft YaHei, PingFang SC, sans-serif" font-size="27" font-weight="700" letter-spacing="6" fill="#0D1B3D">智能设计与系统创新实验室</text>
  <text x="218" y="143" font-family="Inter, Arial, Helvetica, sans-serif" font-size="18" font-weight="500" fill="#64748B">Lab for Intelligent Design and System Innovation</text>
</svg>
