<svg xmlns="http://www.w3.org/2000/svg" width="760" height="620" viewBox="0 0 760 620" role="img" aria-label="IDSI Lab homepage visual">
  <defs>
    <linearGradient id="ring" x1="150" y1="115" x2="565" y2="505" gradientUnits="userSpaceOnUse">
      <stop offset="0" stop-color="#0D1B3D"/>
      <stop offset=".58" stop-color="#0B4E82"/>
      <stop offset="1" stop-color="#0F7F8C"/>
    </linearGradient>
    <linearGradient id="teal" x1="0" y1="0" x2="1" y2="1">
      <stop stop-color="#0F7F8C"/>
      <stop offset="1" stop-color="#35C6C5"/>
    </linearGradient>
    <linearGradient id="gold" x1="0" y1="0" x2="1" y2="1">
      <stop stop-color="#F5A623"/>
      <stop offset="1" stop-color="#D68A00"/>
    </linearGradient>
    <filter id="shadow" x="-20%" y="-20%" width="140%" height="150%">
      <feDropShadow dx="0" dy="24" stdDeviation="20" flood-color="#0D1B3D" flood-opacity=".16"/>
    </filter>
    <pattern id="grid" width="28" height="28" patternUnits="userSpaceOnUse">
      <circle cx="2" cy="2" r="1.2" fill="#A9C6DB" opacity=".55"/>
    </pattern>
  </defs>
  <rect width="760" height="620" fill="#FFFFFF"/>
  <rect x="596" y="18" width="130" height="130" fill="url(#grid)" opacity=".85"/>
  <rect x="24" y="456" width="140" height="126" fill="url(#grid)" opacity=".75"/>
  <g fill="none" stroke="#3C85C3" stroke-width="1.4" opacity=".42">
    <ellipse cx="382" cy="314" rx="318" ry="112" transform="rotate(-13 382 314)" stroke-dasharray="5 6"/>
    <ellipse cx="382" cy="314" rx="284" ry="96" transform="rotate(22 382 314)" stroke-dasharray="4 7"/>
    <ellipse cx="382" cy="314" rx="328" ry="120" transform="rotate(0 382 314)"/>
    <path d="M86 142C232 52 389 56 602 168"/>
    <path d="M120 526H404l10-12 12 12h128"/>
  </g>
  <g filter="url(#shadow)">
    <path d="M515 91A224 224 0 1 0 518 527" stroke="url(#ring)" stroke-width="46" stroke-linecap="butt" fill="none"/>
    <path d="M514 91A224 224 0 0 1 571 117" stroke="#D8E2EF" stroke-width="46" stroke-linecap="butt" opacity=".75"/>
    <path d="M487 493A224 224 0 0 0 565 405" stroke="url(#teal)" stroke-width="46" stroke-linecap="butt" fill="none"/>
    <path d="M198 246H504L566 315 503 417H239L160 337Z" fill="#F9FCFF" opacity=".16"/>
  </g>
  <g stroke="#1B68A1" stroke-width="2" opacity=".72">
    <line x1="260" y1="237" x2="354" y2="169"/>
    <line x1="354" y1="169" x2="484" y2="227"/>
    <line x1="484" y1="227" x2="570" y2="302"/>
    <line x1="260" y1="237" x2="329" y2="344"/>
    <line x1="329" y1="344" x2="438" y2="323"/>
    <line x1="438" y1="323" x2="484" y2="227"/>
    <line x1="438" y1="323" x2="533" y2="438"/>
    <line x1="329" y1="344" x2="533" y2="438"/>
    <line x1="354" y1="169" x2="438" y2="323"/>
    <line x1="219" y1="389" x2="329" y2="344"/>
  </g>
  <g>
    <circle cx="260" cy="237" r="19" fill="#0D1B3D"/>
    <circle cx="354" cy="169" r="14" fill="#CBE8F4"/>
    <circle cx="484" cy="227" r="26" fill="url(#teal)"/>
    <circle cx="570" cy="302" r="23" fill="url(#gold)"/>
    <circle cx="329" cy="344" r="22" fill="#0D1B3D"/>
    <circle cx="438" cy="323" r="24" fill="url(#teal)"/>
    <circle cx="533" cy="438" r="24" fill="#74B5E7"/>
    <circle cx="219" cy="389" r="15" fill="url(#teal)"/>
    <circle cx="403" cy="486" r="10" fill="#BDE6F3"/>
  </g>
  <g stroke="#0D64AE" stroke-width="2" fill="none" opacity=".88">
    <circle cx="116" cy="160" r="36"/>
    <circle cx="116" cy="160" r="47" stroke-dasharray="3 4" opacity=".45"/>
    <path d="M99 178c6-13 28-13 34 0"/>
    <circle cx="106" cy="150" r="9"/>
    <circle cx="126" cy="150" r="9"/>
    <circle cx="118" cy="239" r="9" fill="#1E91CD" stroke="none"/>
    <circle cx="88" cy="423" r="42"/>
    <circle cx="88" cy="423" r="54" stroke-dasharray="3 4" opacity=".45"/>
    <path d="M88 394l28 16v31l-28 16-28-16v-31zM60 410l28 16 28-16M88 426v31"/>
    <circle cx="616" cy="135" r="43"/>
    <circle cx="616" cy="135" r="57" stroke-dasharray="3 4" opacity=".45"/>
    <path d="M604 153v-12c-9-5-11-22 2-31 15-11 34 1 33 18 0 11-8 19-18 21v4"/>
    <path d="M609 125l12-7 13 8M621 118v19M609 125v14M634 126v13"/>
    <circle cx="677" cy="383" r="36"/>
    <circle cx="677" cy="383" r="49" stroke-dasharray="3 4" opacity=".45"/>
    <path d="M657 385c8-15 24-15 38 0M657 385c0 17 39 17 39 0"/>
    <path d="M673 372l7 7 13-16" stroke="#F5A623"/>
  </g>
</svg>
