<svg xmlns="http://www.w3.org/2000/svg" width="220" height="220" viewBox="0 0 220 220" role="img" aria-label="Embodied support icon">
  <defs><linearGradient id="g" x1="44" y1="46" x2="174" y2="170"><stop stop-color="#0D1B3D"/><stop offset="1" stop-color="#0F7F8C"/></linearGradient><filter id="s" x="-20%" y="-20%" width="140%" height="140%"><feDropShadow dx="0" dy="12" stdDeviation="12" flood-color="#0D1B3D" flood-opacity=".12"/></filter></defs>
  <circle cx="110" cy="110" r="96" fill="#EAF7F8"/>
  <g filter="url(#s)">
    <circle cx="110" cy="72" r="22" fill="#0D1B3D"/>
    <path d="M72 166c5-34 71-34 76 0v17H72z" fill="#0D1B3D"/>
    <path d="M48 122c10-31 34-49 62-49s52 18 62 49" stroke="url(#g)" stroke-width="11" stroke-linecap="round" fill="none"/>
    <circle cx="49" cy="122" r="12" fill="#0F7F8C"/>
    <circle cx="171" cy="122" r="12" fill="#0F7F8C"/>
    <circle cx="110" cy="184" r="12" fill="#0F7F8C"/>
    <path d="M38 105c-14 17-14 44 0 61M182 105c14 17 14 44 0 61" stroke="#0D1B3D" stroke-width="8" stroke-linecap="round" fill="none" opacity=".72"/>
    <path d="M50 110c-8 12-8 32 0 44M170 110c8 12 8 32 0 44" stroke="#0D1B3D" stroke-width="7" stroke-linecap="round" fill="none" opacity=".62"/>
    <path d="M142 50a36 36 0 0 1 21 31" stroke="#0F7F8C" stroke-width="8" stroke-linecap="round" stroke-dasharray="1 13" fill="none"/>
  </g>
</svg>
