<svg xmlns="http://www.w3.org/2000/svg" width="220" height="220" viewBox="0 0 220 220" role="img" aria-label="Robotics icon">
  <defs><linearGradient id="g" x1="44" y1="46" x2="174" y2="170"><stop stop-color="#0D1B3D"/><stop offset="1" stop-color="#0F7F8C"/></linearGradient><filter id="s" x="-20%" y="-20%" width="140%" height="140%"><feDropShadow dx="0" dy="12" stdDeviation="12" flood-color="#0D1B3D" flood-opacity=".12"/></filter></defs>
  <circle cx="110" cy="110" r="96" fill="#EEF4FB"/>
  <g filter="url(#s)">
    <path d="M66 169h91" stroke="#0D1B3D" stroke-width="11" stroke-linecap="round"/>
    <path d="M77 153h70" stroke="#0D1B3D" stroke-width="11" stroke-linecap="round"/>
    <path d="M94 151l-28-55 24-13 35 47" fill="url(#g)"/>
    <path d="M90 83l53-28 14 27-53 27z" fill="#0D1B3D"/>
    <circle cx="67" cy="95" r="21" fill="#0D1B3D"/>
    <circle cx="67" cy="95" r="10" fill="#0F7F8C"/>
    <circle cx="153" cy="68" r="20" fill="#0D1B3D"/>
    <circle cx="153" cy="68" r="9" fill="#0F7F8C"/>
    <path d="M165 83l17 14-8 20-23 4-16-16 5-20z" fill="url(#g)"/>
    <path d="M172 116l17 11M151 121l-6 19M136 105l-20 7" stroke="#0D1B3D" stroke-width="7" stroke-linecap="round"/>
  </g>
</svg>
