<svg xmlns="http://www.w3.org/2000/svg" width="220" height="220" viewBox="0 0 220 220" role="img" aria-label="Knowledge-driven design icon">
  <defs><linearGradient id="g" x1="40" y1="40" x2="170" y2="175"><stop stop-color="#0D1B3D"/><stop offset="1" stop-color="#0F7F8C"/></linearGradient><filter id="s" x="-20%" y="-20%" width="140%" height="140%"><feDropShadow dx="0" dy="12" stdDeviation="12" flood-color="#0D1B3D" flood-opacity=".12"/></filter></defs>
  <circle cx="110" cy="110" r="96" fill="#EAF7F8"/>
  <g filter="url(#s)" fill="none" stroke="url(#g)" stroke-width="7" stroke-linecap="round" stroke-linejoin="round">
    <path d="M74 162H58c-12 0-19-7-19-19v-15c-12-5-15-19-5-28l9-8c2-32 27-56 61-56 38 0 65 27 65 63 0 22-10 39-26 50v26H96v-17"/>
    <path d="M78 81l32-14 36 17v39l-36 17-32-17z"/>
    <path d="M110 67v73M78 81l32 19 36-16M78 123l32-23 36 23" stroke-width="5" opacity=".9"/>
  </g>
  <circle cx="110" cy="100" r="9" fill="#F5A623"/>
  <circle cx="78" cy="81" r="8" fill="#0D1B3D"/>
  <circle cx="146" cy="84" r="8" fill="#0F7F8C"/>
  <circle cx="78" cy="123" r="8" fill="#0F7F8C"/>
  <circle cx="146" cy="123" r="8" fill="#0D1B3D"/>
</svg>
