<svg xmlns="http://www.w3.org/2000/svg" width="220" height="220" viewBox="0 0 220 220" role="img" aria-label="Human-AI collaboration icon">
  <defs><linearGradient id="g" x1="40" y1="50" x2="180" y2="170"><stop stop-color="#0D1B3D"/><stop offset="1" stop-color="#0F7F8C"/></linearGradient><filter id="s" x="-20%" y="-20%" width="140%" height="140%"><feDropShadow dx="0" dy="12" stdDeviation="12" flood-color="#0D1B3D" flood-opacity=".12"/></filter></defs>
  <circle cx="110" cy="110" r="96" fill="#EEF4FB"/>
  <g filter="url(#s)">
    <circle cx="71" cy="83" r="22" fill="#0D1B3D"/>
    <path d="M35 158c6-33 64-33 72 0v18H35z" fill="#0D1B3D"/>
    <circle cx="149" cy="83" r="22" fill="#0F7F8C"/>
    <path d="M113 158c8-33 64-33 72 0v18h-72z" fill="#0F7F8C"/>
    <path d="M86 105c12 19 36 19 48 0" stroke="url(#g)" stroke-width="10" stroke-linecap="round" fill="none"/>
    <path d="M110 55v-18M86 63l-13-13M134 63l13-13" stroke="#F5A623" stroke-width="7" stroke-linecap="round"/>
    <circle cx="110" cy="38" r="9" fill="#F5A623"/>
  </g>
</svg>
