<svg xmlns="http://www.w3.org/2000/svg" width="220" height="220" viewBox="0 0 220 220" role="img" aria-label="Supportive design icon">
  <defs><linearGradient id="g" x1="40" y1="50" x2="180" y2="170"><stop stop-color="#0D1B3D"/><stop offset="1" stop-color="#0F7F8C"/></linearGradient><filter id="s" x="-20%" y="-20%" width="140%" height="140%"><feDropShadow dx="0" dy="12" stdDeviation="12" flood-color="#0D1B3D" flood-opacity=".12"/></filter></defs>
  <circle cx="110" cy="110" r="96" fill="#FFF5DD"/>
  <g filter="url(#s)" fill="none" stroke-linecap="round" stroke-linejoin="round">
    <path d="M62 129v-31c0-11 18-11 18 0v44l20 20" stroke="url(#g)" stroke-width="9"/>
    <path d="M158 129v-31c0-11-18-11-18 0v44l-20 20" stroke="url(#g)" stroke-width="9"/>
    <path d="M80 145l30 24 30-24" stroke="url(#g)" stroke-width="9"/>
    <path d="M110 74c-11-25-52-16-52 15 0 31 52 62 52 62s52-31 52-62c0-31-41-40-52-15z" stroke="#F5A623" stroke-width="9"/>
    <circle cx="166" cy="67" r="5" fill="#F5A623" stroke="none"/>
  </g>
</svg>
